<svg width="144" height="40" viewBox="0 0 144 40" fill="none" xmlns="http://www.w3.org/2000/svg">
<path d="M124.752 22.6938C124.752 22.1238 125.248 21.6529 125.818 21.6529C126.388 21.6529 126.859 22.1238 126.859 22.6938C126.859 23.2638 126.363 23.7347 125.818 23.7347C125.272 23.7347 124.752 23.2638 124.752 22.6938Z" fill="black"/>
<path d="M128.321 20.042H129.733V20.5624C129.733 21.6033 130.303 22.3716 131.493 22.3716C132.683 22.3716 133.228 21.6281 133.228 20.5129V12.8301H134.665V20.5624C134.665 22.4955 133.376 23.6851 131.468 23.6851C129.436 23.6851 128.296 22.3964 128.296 20.5377V20.0172L128.321 20.042Z" fill="black"/>
<path d="M140.142 12.6814C142.175 12.6814 143.488 13.8214 143.612 15.6802H142.15C142.075 14.6145 141.332 13.9949 140.118 13.9949C138.779 13.9949 137.912 14.664 137.912 15.7297C137.912 16.5971 138.407 17.0928 139.399 17.3406L141.158 17.7619C142.893 18.1585 143.785 19.1002 143.785 20.612C143.785 22.5451 142.298 23.7595 140.018 23.7595C137.738 23.7595 136.4 22.6194 136.301 20.7855H137.788C137.813 21.8016 138.68 22.446 140.018 22.446C141.431 22.446 142.348 21.7768 142.348 20.7111C142.348 19.8685 141.902 19.3481 140.861 19.1002L139.101 18.7037C137.367 18.3072 136.45 17.2911 136.45 15.7545C136.45 13.9206 137.937 12.6814 140.142 12.6814Z" fill="black"/>
<path d="M67.9763 1.99981V17.3901L57.7905 1.99981H54.0234V23.7346H57.7657V8.31951L67.9763 23.7346H71.7186V1.99981H67.9763Z" fill="black"/>
<path d="M88.0259 1.99981V5.49423H78.3357V11.0952H87.0098V14.441H78.3357V20.2154H88.0259V23.7346H74.5191V1.99981H88.0259Z" fill="black"/>
<path d="M112.363 1.99981L109.984 5.49423H116.873V23.7346H120.69V5.49423H125.548L127.902 1.99981H112.363Z" fill="black"/>
<path d="M96.1795 15.1596L98.5092 18.5797L94.99 23.7346H90.3555L96.1795 15.1596Z" fill="black"/>
<path d="M109.835 23.7346H105.176L100.095 16.2501L97.7657 12.83L90.4051 1.99976H95.0395L100.095 9.40992L105.126 1.99976H109.761L104.854 9.21165L102.4 12.83L109.835 23.7346Z" fill="black"/>
<path d="M54.0234 26.6211H60.5166V27.4637H57.7161V35.667H56.7992V27.4637H54.0234V26.6211Z" fill="#535353"/>
<path d="M60.2192 32.5938C60.2192 30.6855 61.4088 29.372 63.1684 29.372C64.928 29.372 65.9441 30.5368 65.9441 32.2717V32.693H61.0618C61.1362 34.18 61.9045 35.0474 63.218 35.0474C64.2093 35.0474 64.8537 34.6261 65.1015 33.8082H65.9441C65.6219 35.0969 64.6554 35.7909 63.218 35.7909C61.4088 35.7909 60.2192 34.5022 60.2192 32.5938ZM61.0866 32.0734H65.0767C65.0767 30.9086 64.3084 30.1155 63.1684 30.1155C62.0284 30.1155 61.2601 30.8838 61.1114 32.0734H61.0866Z" fill="#535353"/>
<path d="M67.332 35.667V29.5455H68.1003L68.1994 30.4129C68.4968 29.7686 69.1907 29.372 70.0581 29.372C71.0247 29.372 71.7434 29.8677 72.0408 30.6855C72.3134 29.8925 73.0569 29.372 74.0482 29.372C75.3865 29.372 76.2539 30.2395 76.2539 31.6521V35.667H75.4113V31.8504C75.4113 30.8095 74.8165 30.1899 73.8995 30.1899C72.8834 30.1899 72.2638 30.9582 72.2638 31.8999V35.667H71.3964V31.8256C71.3964 30.7847 70.8016 30.1899 69.8846 30.1899C68.8685 30.1899 68.249 30.9582 68.249 31.8751V35.667H67.332Z" fill="#535353"/>
<path d="M77.9887 29.5455H78.757L78.8561 30.7847C79.2774 29.8429 80.1449 29.372 81.1857 29.372C82.9701 29.372 84.011 30.7351 84.011 32.5691C84.011 34.403 82.9949 35.7909 81.1857 35.7909C80.1449 35.7909 79.327 35.3448 78.9057 34.4526V38.294H78.0383V29.5207L77.9887 29.5455ZM81.0123 35.0226C82.3506 35.0226 83.1188 34.0065 83.1188 32.5938C83.1188 31.1812 82.3506 30.1651 81.0123 30.1651C79.674 30.1651 78.8809 31.1812 78.8809 32.5938C78.8809 34.0065 79.674 35.0226 81.0123 35.0226Z" fill="#535353"/>
<path d="M85.4237 35.667V27.0672L86.2911 26.4476V35.6422H85.4237V35.667Z" fill="#535353"/>
<path d="M87.8276 34.0065C87.8276 32.8912 88.6951 32.1725 90.1325 32.0734L92.1647 31.8999V31.7017C92.1647 30.5121 91.446 30.1155 90.5538 30.1155C89.4881 30.1155 88.8685 30.5864 88.8685 31.429H88.0755C88.0755 30.1899 89.0916 29.3968 90.6034 29.3968C92.016 29.3968 93.0569 30.1155 93.0569 31.7264V35.667H92.3134L92.1895 34.6013C91.8177 35.3696 90.9751 35.8404 89.9342 35.8404C88.6207 35.8404 87.8524 35.0969 87.8524 34.0313L87.8276 34.0065ZM92.1399 32.8912V32.5691L90.3307 32.7178C89.1659 32.8169 88.7198 33.3126 88.7198 34.0065C88.7198 34.75 89.2651 35.1217 90.1077 35.1217C91.3964 35.1217 92.1399 34.2295 92.1399 32.8912Z" fill="#535353"/>
<path d="M95.1882 35.667V30.289H93.9491V29.5455H95.1882V28.2072L96.0556 27.6124V29.5455H97.2948V30.289H96.0556V35.667H95.1882Z" fill="#535353"/>
<path d="M97.9144 32.5938C97.9144 30.6855 99.104 29.372 100.864 29.372C102.623 29.372 103.639 30.5368 103.639 32.2717V32.693H98.757C98.8314 34.18 99.5996 35.0474 100.913 35.0474C101.904 35.0474 102.549 34.6261 102.797 33.8082H103.639C103.317 35.0969 102.351 35.7909 100.913 35.7909C99.104 35.7909 97.9144 34.5022 97.9144 32.5938ZM98.7818 32.0734H102.772C102.772 30.9086 102.004 30.1155 100.864 30.1155C99.7235 30.1155 98.9553 30.8838 98.8066 32.0734H98.7818Z" fill="#535353"/>
<path d="M105.349 33.9321C105.349 34.6509 105.87 35.0722 106.737 35.0722C107.679 35.0722 108.249 34.6756 108.249 34.0065C108.249 33.5108 108.001 33.2134 107.282 33.0399L106.242 32.7673C105.176 32.4947 104.655 31.9495 104.655 31.1069C104.655 30.0412 105.548 29.3473 106.861 29.3473C108.175 29.3473 108.992 30.066 109.017 31.1812H108.175C108.175 30.4625 107.654 30.066 106.836 30.066C106.018 30.066 105.498 30.4377 105.498 31.0821C105.498 31.553 105.82 31.8751 106.489 32.0486L107.53 32.3212C108.596 32.5939 109.067 33.0895 109.067 33.9569C109.067 35.0474 108.125 35.7661 106.737 35.7661C105.349 35.7661 104.507 35.0226 104.507 33.9074H105.349V33.9321Z" fill="#535353"/>
<path d="M142.725 32.7364H113.432L114.547 31.4476H143.816L142.725 32.7364Z" fill="#535353"/>
<path d="M40.0248 19.9752C40.0248 22.7261 39.4795 25.3532 38.4882 27.7076C35.4647 34.9442 28.3519 40 20.0248 40C8.9715 40 0 31.0533 0 20C0 8.94672 8.9715 0 20.0248 0C26.4436 0 32.1685 3.02354 35.8364 7.73234H19.653L22.4783 11.9703H26.0966V25.1053L22.057 18.9839L14.5973 7.73234H10.3346V32H14.5725V14.8699L26.0966 32.2677H30.3098V11.9703H38.3643C39.43 14.4238 40.0248 17.1252 40.0248 19.9752Z" fill="black"/>
</svg>
